FFmpeg version SVN-r25716, Copyright (c) 2000-2010 the FFmpeg developers  built on Nov 10 2010 12:23:18 with gcc 4.1.2 20080704 (Red Hat 4.1.2-48)  configuration: --enable-libmp3lame --enable-shared --disable-mmx --arch=x86_64  libavutil     50.33. 0 / 50.33. 0  libavcore      0.12. 1 /  0.12. 1  libavcodec    52.94. 4 / 52.94. 4  libavformat   52.84. 0 / 52.84. 0  libavdevice   52. 2. 2 / 52. 2. 2  libavfilter    1.59. 0 /  1.59. 0  libswscale     0.12. 0 /  0.12. 0Input #0, avi, from '/RAID10/data/converted_video_files/47598.avi':  Duration: 00:00:09.70, start: 0.000000, bitrate: 107452 kb/s    Stream #0.0: Video: msvideo1, rgb555le, 1024x1024, 20 tbr, 20 tbn, 20 tbc[buffer @ 0x28993b0] w:1024 h:1024 pixfmt:rgb555le[ffsink @ 0x28b5b40] auto-inserting filter 'auto-inserted scaler 0' between the filter 'src' and the filter 'out'[scale @ 0x28efe00] w:1024 h:1024 fmt:rgb555le -> w:1024 h:1024 fmt:yuv420p flags:0x4Output #0, flv, to '/RAID10/data/converted_video_files/47598.flv':  Metadata:    encoder         : Lavf52.84.0    Stream #0.0: Video: flv, yuv420p, 1024x1024, q=2-31, 600 kb/s, 1k tbn, 24 tbcStream mapping:  Stream #0.0 -> #0.0Press [q] to stop encodingframe=    6 fps=  0 q=11.5 size=    1758kB time=0.29 bitrate=49311.5kbits/s    frame=   13 fps= 10 q=13.6 size=    2129kB time=0.62 bitrate=27905.4kbits/s    frame=   17 fps= 10 q=19.0 size=    2315kB time=0.83 bitrate=22762.5kbits/s    frame=   25 fps= 11 q=31.0 size=    2478kB time=1.25 bitrate=16240.4kbits/s    frame=   34 fps= 11 q=31.0 size=    2570kB time=1.71 bitrate=12321.5kbits/s    frame=   38 fps= 11 q=31.0 size=    2603kB time=1.87 bitrate=11379.9kbits/s    frame=   43 fps= 11 q=24.8 size=    2691kB time=2.12 bitrate=10374.9kbits/s    frame=   50 fps= 11 q=31.0 size=    2772kB time=2.50 bitrate=9085.6kbits/s    frame=   54 fps= 11 q=31.0 size=    2798kB time=2.71 bitrate=8461.3kbits/s    frame=   61 fps= 11 q=31.0 size=    2880kB time=3.04 bitrate=7757.0kbits/s    frame=   70 fps= 12 q=31.0 size=    2968kB time=3.50 bitrate=6947.1kbits/s    frame=   78 fps= 12 q=31.0 size=    3048kB time=3.88 bitrate=6443.8kbits/s    frame=   86 fps= 12 q=31.0 size=    3154kB time=4.29 bitrate=6020.7kbits/s    frame=   92 fps= 12 q=31.0 size=    3246kB time=4.58 bitrate=5802.2kbits/s    frame=   99 fps= 12 q=31.0 size=    3296kB time=4.96 bitrate=5444.8kbits/s    frame=  108 fps= 12 q=31.0 size=    3395kB time=5.38 bitrate=5174.3kbits/s    frame=  110 fps= 12 q=31.0 Lsize=    3415kB time=5.50 bitrate=5086.8kbits/s    video:3413kB audio:0kB global headers:0kB muxing overhead 0.056373%